PathFileType	4	(X/Y/Z)	/Users/itak/Documents/Research/Walk-IL/dataset/trc/00189_00008.trc
DataRate	CameraRate	NumFrames	NumMarkers	Units	OrigDataRate	OrigDataStartFrame	OrigNumFrames
100.000000	100.000000	4	53	mm	100.000000	410	821
Frame#	Time	RPSI			LPSI			L3			STRN			T10			C7			CLAV			RBAK			LBAK			LSHO			LUPA			LAEL			LAOL			LWTS			LWPS			LFRA			LIFD			LHPS			LHTS			RSHO			RUPA			RAEL			RAOL			RWTS			RWPS			RFRA			RIFD			RHTS			RHPS			RBHD			LFHD			RFHD			LBHD			LHIP			RHIP			RASI			LASI			LKNE			LTHI			LANK			LTIP			LTOE			LMT1			LMT5			LHEE			RKNE			RTHI			RANK			RTIP			RTOE			RMT1			RMT5			RHEE			
		X1	Y1	Z1	X2	Y2	Z2	X3	Y3	Z3	X4	Y4	Z4	X5	Y5	Z5	X6	Y6	Z6	X7	Y7	Z7	X8	Y8	Z8	X9	Y9	Z9	X10	Y10	Z10	X11	Y11	Z11	X12	Y12	Z12	X13	Y13	Z13	X14	Y14	Z14	X15	Y15	Z15	X16	Y16	Z16	X17	Y17	Z17	X18	Y18	Z18	X19	Y19	Z19	X20	Y20	Z20	X21	Y21	Z21	X22	Y22	Z22	X23	Y23	Z23	X24	Y24	Z24	X25	Y25	Z25	X26	Y26	Z26	X27	Y27	Z27	X28	Y28	Z28	X29	Y29	Z29	X30	Y30	Z30	X31	Y31	Z31	X32	Y32	Z32	X33	Y33	Z33	X34	Y34	Z34	X35	Y35	Z35	X36	Y36	Z36	X37	Y37	Z37	X38	Y38	Z38	X39	Y39	Z39	X40	Y40	Z40	X41	Y41	Z41	X42	Y42	Z42	X43	Y43	Z43	X44	Y44	Z44	X45	Y45	Z45	X46	Y46	Z46	X47	Y47	Z47	X48	Y48	Z48	X49	Y49	Z49	X50	Y50	Z50	X51	Y51	Z51	X52	Y52	Z52	X53	Y53	Z53	

411	4.1	-568.9529418945312	1013.096618652344	-691.395263671875	-626.7896118164062	1027.567016601562	-799.5051879882812	-594.9468383789062	1058.53759765625	-743.9187622070312	-342.1226196289062	1260.750366210938	-853.9627685546875	-624.1331787109375	1221.6015625	-742.3993530273438	-547.1441650390625	1485.331176757812	-779.65869140625	-362.5994873046875	1376.296264648438	-849.7239990234375	-583.4118041992188	1311.398315429688	-654.59619140625	-594.3782348632812	1465.988647460938	-871.8713989257812	-547.6724853515625	1455.219604492188	-970.5350341796875	-603.6934204101562	1331.51318359375	-1041.083618164062	-585.3285522460938	1127.857666015625	-1110.936157226562	-594.5075073242188	1088.14453125	-1032.177124023438	-433.4416809082031	938.177734375	-1190.992919921875	-518.8242797851562	896.2730102539062	-1196.610107421875	-561.7181396484375	1027.522216796875	-1156.991577148438	-373.5721435546875	767.4216918945312	-1231.488525390625	-484.45458984375	837.9120483398438	-1222.767456054688	-421.2353515625	870.218994140625	-1236.723510742188	-429.0978088378906	1455.464599609375	-632.6666870117188	-431.4967346191406	1388.300415039062	-562.9100341796875	-461.3864135742188	1102.376953125	-510.6498718261719	-485.7368774414062	1096.687866210938	-605.8541259765625	-344.3558349609375	867.7315063476562	-554.0712280273438	-410.1793518066406	853.4931640625	-496.9044799804688	-438.6078796386719	1028.459106445312	-497.941650390625	-345.8565063476562	679.529541015625	-585.2527465820312	-323.8589477539062	771.930908203125	-552.3508911132812	-390.4035339355469	768.4598388671875	-506.8475036621094	-486.8201599121094	1619.802856445312	-724.4849853515625	-342.8526611328125	1706.215209960938	-864.9669799804688	-326.6995239257812	1684.094848632812	-737.873046875	-514.0860595703125	1649.481811523438	-857.5618896484375	-594.3447875976562	979.231689453125	-953.0609130859375	-379.1867980957031	957.4320068359375	-653.404541015625	-330.7518005371094	991.3469848632812	-737.3388061523438	-454.0838928222656	1002.274597167969	-965.6692504882812	-649.3939208984375	493.5432434082031	-892.0971069335938	-629.8754272460938	633.6560668945312	-927.3973388671875	-807.1010131835938	47.90545272827148	-788.3200073242188	-736.3773193359375	283.5794982910156	-850.986083984375	-625.3275756835938	38.4294548034668	-910.9984130859375	-632.9871215820312	45.27817916870117	-842.9390258789062	-754.9400024414062	29.4858570098877	-885.8809814453125	-803.0921630859375	60.45755767822266	-703.4085693359375	-224.8531951904297	507.6578674316406	-780.9873657226562	-286.5909423828125	754.1950073242188	-698.2250366210938	-100.1874084472656	37.71753311157227	-903.8347778320312	-175.9433898925781	410.9899291992188	-823.0188598632812	63.60672760009766	172.1278533935547	-933.9677124023438	20.95693016052246	146.0935363769531	-979.5270385742188	0.6793688535690308	81.00768280029297	-874.9481811523438	-155.7811889648438	32.231689453125	-965.4412231445312	
412	4.11	-559.294677734375	1012.145812988281	-694.957763671875	-617.1796264648438	1026.754760742188	-803.0403442382812	-585.34912109375	1057.627319335938	-747.4420166015625	-332.1770324707031	1260.022827148438	-856.5216674804688	-614.6378173828125	1220.525512695312	-745.7752075195312	-537.5790405273438	1484.368041992188	-782.2821044921875	-352.720947265625	1375.532470703125	-852.0240478515625	-574.115478515625	1310.098754882812	-657.72021484375	-584.5509033203125	1465.229248046875	-874.6804809570312	-537.5283813476562	1454.526123046875	-973.26513671875	-593.4228515625	1330.74658203125	-1043.898193359375	-575.0635986328125	1126.994262695312	-1113.369018554688	-584.3763427734375	1087.394897460938	-1034.575317382812	-423.0810241699219	937.1287841796875	-1192.833251953125	-508.5108032226562	895.2402954101562	-1198.5810546875	-551.4317626953125	1026.586791992188	-1159.22998046875	-363.0065002441406	766.562744140625	-1233.090942382812	-474.0674133300781	836.858154296875	-1224.635986328125	-410.81640625	869.1986694335938	-1238.498291015625	-420.0192565917969	1454.204833984375	-634.950927734375	-422.7676696777344	1386.956787109375	-565.3063354492188	-453.5683898925781	1101.137939453125	-513.8457641601562	-477.4084777832031	1095.559936523438	-609.256103515625	-338.1994018554688	865.4732055664062	-556.0317993164062	-404.4748229980469	852.0410766601562	-499.1808166503906	-431.3853149414062	1027.1787109375	-500.8956298828125	-341.4263610839844	677.1390991210938	-586.5873413085938	-318.7279968261719	769.40869140625	-553.9182739257812	-385.4525756835938	766.7965087890625	-508.736083984375	-478.0287780761719	1618.673828125	-726.6780395507812	-333.2763366699219	1705.630126953125	-865.9857177734375	-317.7836303710938	1683.300537109375	-738.896728515625	-504.46533203125	1648.644409179688	-859.829345703125	-584.7247924804688	978.677490234375	-956.5958862304688	-369.5977783203125	956.4290161132812	-657.0328369140625	-320.6167907714844	990.6957397460938	-741.0852661132812	-444.5053405761719	1001.5185546875	-969.1920166015625	-642.8416137695312	493.7441711425781	-895.6701049804688	-622.278076171875	633.699951171875	-930.993896484375	-806.8798217773438	50.26406478881836	-789.1522216796875	-732.8444213867188	285.0181884765625	-853.1349487304688	-625.3715209960938	38.40126800537109	-911.1299438476562	-632.9529418945312	45.3565559387207	-843.319580078125	-754.6261596679688	29.70138931274414	-886.0873413085938	-802.950439453125	64.01016998291016	-704.2978515625	-215.1217041015625	506.9109802246094	-783.8448486328125	-276.8320007324219	753.7623291015625	-701.9090576171875	-93.12954711914062	35.88547897338867	-905.7109375	-166.3867340087891	409.4620056152344	-825.3699340820312	72.16770935058594	169.0264892578125	-933.0490112304688	30.22901725769043	143.1049346923828	-979.3941650390625	7.544898509979248	78.46039581298828	-875.1320190429688	-147.9094696044922	30.84941864013672	-968.3128051757812	
413	4.12	-549.2691650390625	1011.393432617188	-698.4339599609375	-607.2429809570312	1026.140747070312	-806.4700927734375	-575.4127807617188	1056.901611328125	-750.8721923828125	-321.9655456542969	1259.551879882812	-859.0196533203125	-604.8231201171875	1219.583984375	-749.0559692382812	-527.8226318359375	1483.567626953125	-784.7813110351562	-342.6178588867188	1375.019775390625	-854.2401123046875	-564.5377807617188	1308.948120117188	-660.7512817382812	-574.516845703125	1464.644287109375	-877.3527221679688	-527.2050170898438	1454.056762695312	-975.8560180664062	-583.0128173828125	1330.218505859375	-1046.579833984375	-564.7976684570312	1126.28955078125	-1115.463623046875	-574.2039184570312	1086.893798828125	-1036.577392578125	-412.9519958496094	936.0328369140625	-1194.288818359375	-498.469970703125	894.2352905273438	-1200.071899414062	-541.2664794921875	1025.756469726562	-1161.061767578125	-353.0465393066406	765.3602294921875	-1234.201293945312	-464.0377807617188	835.773193359375	-1225.981689453125	-400.707275390625	868.0524291992188	-1239.821533203125	-410.723388671875	1453.16259765625	-637.153564453125	-413.8235473632812	1385.859130859375	-567.6123046875	-445.5936584472656	1100.156982421875	-516.9198608398438	-468.8338317871094	1094.680297851562	-612.5489501953125	-331.7694702148438	863.5272827148438	-557.7809448242188	-398.5430297851562	850.8700561523438	-501.3440856933594	-423.9740905761719	1026.16748046875	-503.707763671875	-336.5694885253906	675.0881958007812	-587.746826171875	-313.2558898925781	767.2325439453125	-555.26025390625	-380.2163391113281	765.433837890625	-510.4974975585938	-469.0740661621094	1617.720092773438	-728.7354736328125	-323.5870361328125	1705.281127929688	-866.8682861328125	-308.6513061523438	1682.769653320312	-739.8358154296875	-494.6855163574219	1648.000122070312	-861.9397583007812	-574.8518676757812	978.287109375	-960.011962890625	-359.6462707519531	955.6590576171875	-660.6405029296875	-310.2120056152344	990.2647705078125	-744.8233642578125	-434.6951904296875	1000.956420898438	-972.6640014648438	-635.9590454101562	494.0801391601562	-899.4137573242188	-614.3826904296875	633.898193359375	-934.674072265625	-806.5999755859375	52.9900016784668	-790.135009765625	-729.033935546875	286.6668090820312	-855.4856567382812	-625.3894653320312	38.38019561767578	-911.2406005859375	-632.8817749023438	45.42132186889648	-843.6990356445312	-754.2020874023438	30.04446029663086	-886.3416137695312	-802.7280883789062	68.02813720703125	-705.372314453125	-205.1960296630859	506.17431640625	-786.5628051757812	-266.6337280273438	753.6336059570312	-705.5745239257812	-87.76353454589844	33.63471603393555	-907.142822265625	-156.9581909179688	407.6600646972656	-827.595458984375	79.56105041503906	164.5789031982422	-932.0048217773438	38.19881439208984	138.9547576904297	-979.0598754882812	12.84831523895264	75.12077331542969	-875.0152587890625	-141.74658203125	29.12178993225098	-970.7342529296875	
414	4.13	-538.8592529296875	1010.825988769531	-701.8193359375	-596.9466552734375	1025.715942382812	-809.7903442382812	-565.1121826171875	1056.34912109375	-754.2027587890625	-311.4866943359375	1259.329833984375	-861.4625244140625	-594.6885986328125	1218.764892578125	-752.2320556640625	-517.875244140625	1482.921630859375	-787.1470947265625	-332.287353515625	1374.747802734375	-856.3723754882812	-554.6768188476562	1307.934326171875	-663.684326171875	-564.280029296875	1464.22216796875	-879.8778076171875	-516.7097778320312	1453.806030273438	-978.3002319335938	-572.4707641601562	1329.926391601562	-1049.124877929688	-554.5336303710938	1125.740112304688	-1117.232299804688	-563.9954223632812	1086.630859375	-1038.200073242188	-403.0497741699219	934.8975830078125	-1195.375610351562	-488.6944580078125	893.261962890625	-1201.100219726562	-531.2186279296875	1025.03125	-1162.501831054688	-343.6854248046875	763.82958984375	-1234.823364257812	-454.3661499023438	834.6605834960938	-1226.818359375	-390.9109191894531	866.7792358398438	-1240.709228515625	-401.1991882324219	1452.321411132812	-639.2685546875	-404.6476135253906	1384.988647460938	-569.8250122070312	-437.4463806152344	1099.42138671875	-519.8583984375	-460.009765625	1094.030883789062	-615.7132568359375	-325.0578308105469	861.8790893554688	-559.331298828125	-392.3650207519531	849.959716796875	-503.4006042480469	-416.3645324707031	1025.405517578125	-506.3724365234375	-331.2720031738281	673.3629150390625	-588.7642211914062	-307.4255676269531	765.388671875	-556.4029541015625	-374.6813049316406	764.3521728515625	-512.151611328125	-459.9563903808594	1616.93115234375	-730.6583862304688	-313.7892150878906	1705.1611328125	-867.6165161132812	-299.3082580566406	1682.494873046875	-740.69189453125	-484.7575378417969	1647.538330078125	-863.9024658203125	-564.6966552734375	978.0619506835938	-963.3087158203125	-349.3023071289062	955.0985717773438	-664.2232055664062	-299.5689392089844	989.9884643554688	-748.5220947265625	-424.6118774414062	1000.604248046875	-976.0892944335938	-628.72314453125	494.5521240234375	-903.3353881835938	-606.1602172851562	634.2579956054688	-938.4467163085938	-806.2278442382812	56.10149002075195	-791.2649536132812	-724.915771484375	288.5322265625	-858.0469970703125	-625.3749389648438	38.36260986328125	-911.333984375	-632.7511596679688	45.4649772644043	-844.06103515625	-753.6593627929688	30.54644966125488	-886.6487426757812	-802.366943359375	72.52587127685547	-706.6390991210938	-195.1621551513672	505.4012451171875	-789.1380615234375	-256.0487365722656	753.7101440429688	-709.2034912109375	-83.95529937744141	31.12796592712402	-908.1905517578125	-147.7112579345703	405.6099853515625	-829.70849609375	85.90853881835938	158.9264221191406	-930.804931640625	45.00265121459961	133.7816162109375	-978.5187377929688	16.72239303588867	71.13560485839844	-874.64306640625	-137.1074523925781	27.18002510070801	-972.78173828125	
